<?xml version="1.0" encoding="UTF-8"?>
<svg width="48px" height="48px" viewBox="0 0 48 48" version="1.1" xmlns="http://www.w3.org/2000/svg" xmlns:xlink="http://www.w3.org/1999/xlink">
    <!-- Generator: Sketch 53.2 (72643) - https://sketchapp.com -->
    <title>avatar</title>
    <desc>Created with Sketch.</desc>
    <g id="Symbols" stroke="none" stroke-width="1" fill="none" fill-rule="evenodd">
        <g id="input">
            <g id="avatar">
                <circle id="bg" fill="#EAEFFC" cx="24" cy="24" r="24"></circle>
                <g id="user-4-fill" transform="translate(16.000000, 11.000000)">
                    <polygon id="Path" points="0 0 20 0 20 20 0 20"></polygon>
                    <path d="M4.16666667,16.6666667 L15.8333333,16.6666667 L15.8333333,18.3333333 L4.16666667,18.3333333 L4.16666667,16.6666667 Z M10,15 C6.31810167,15 3.33333333,12.0152317 3.33333333,8.33333333 C3.33333333,4.651435 6.31810167,1.66666667 10,1.66666667 C13.6818983,1.66666667 16.6666667,4.651435 16.6666667,8.33333333 C16.6666667,12.0152317 13.6818983,15 10,15 Z" id="Shape" fill="#FFFFFF" fill-rule="nonzero"></path>
                </g>
                <g id="user-4-line" transform="translate(14.000000, 14.000000)">
                    <polygon id="Path" points="0 0 20 0 20 20 0 20"></polygon>
                    <path d="M4.16666667,16.6666667 L15.8333333,16.6666667 L15.8333333,18.3333333 L4.16666667,18.3333333 L4.16666667,16.6666667 Z M10,15 C6.31810167,15 3.33333333,12.0152317 3.33333333,8.33333333 C3.33333333,4.651435 6.31810167,1.66666667 10,1.66666667 C13.6818983,1.66666667 16.6666667,4.651435 16.6666667,8.33333333 C16.6666667,12.0152317 13.6818983,15 10,15 Z M10,13.3333333 C12.7614237,13.3333333 15,11.0947571 15,8.33333333 C15,5.57190958 12.7614237,3.33333333 10,3.33333333 C7.23857625,3.33333333 5,5.57190958 5,8.33333333 C5,11.0947571 7.23857625,13.3333333 10,13.3333333 Z" id="Shape" fill="#4E75F6" fill-rule="nonzero"></path>
                </g>
            </g>
        </g>
    </g>
</svg>