<?xml version="1.0" encoding="UTF-8"?>
<svg width="250px" height="250px" viewBox="0 0 250 250" version="1.1" xmlns="http://www.w3.org/2000/svg" xmlns:xlink="http://www.w3.org/1999/xlink">
    <!-- Generator: Sketch 53.2 (72643) - https://sketchapp.com -->
    <title>empty</title>
    <desc>Created with Sketch.</desc>
    <g id="empty" stroke="none" stroke-width="1" fill="none" fill-rule="evenodd">
        <path d="M189.957503,208.027345 L219.957503,178.027345 L189.957503,208.027345 Z M205.815367,178.027345 L175.815367,208.027345 L205.815367,178.027345 Z M191.673232,178.027345 L161.673232,208.027345 L191.673232,178.027345 Z M147.531096,208.027345 L177.531096,178.027345 L147.531096,208.027345 Z M133.38896,208.027345 L163.38896,178.027345 L133.38896,208.027345 Z M119.246825,208.027345 L149.246825,178.027345 L119.246825,208.027345 Z M105.104689,208.027345 L135.104689,178.027345 L105.104689,208.027345 Z M90.9625535,208.027345 L120.962554,178.027345 L90.9625535,208.027345 Z M76.8204179,208.027345 L106.820418,178.027345 L76.8204179,208.027345 Z M62.6782823,208.027345 L92.6782823,178.027345 L62.6782823,208.027345 Z M48.5361467,208.027345 L78.5361467,178.027345 L48.5361467,208.027345 Z M64.394011,178.027345 L34.394011,208.027345 L64.394011,178.027345 Z M60,168.279221 L30,198.279221 L60,168.279221 Z M30,184.137085 L60,154.137085 L30,184.137085 Z M60,139.994949 L30,169.994949 L60,139.994949 Z M30,155.852814 L60,125.852814 L30,155.852814 Z M60,111.710678 L30,141.710678 L60,111.710678 Z M60,97.5685425 L30,127.568542 L60,97.5685425 Z M30,113.426407 L60,83.4264069 L30,113.426407 Z M30,99.2842712 L60,69.2842712 L30,99.2842712 Z M30,85.1421356 L60,55.1421356 L30,85.1421356 Z M30,71 L60,41 L30,71 Z" id="Shape" stroke="#4E75F6"></path>
        <polygon id="Path" stroke="#16171C" points="219.697006 177.724351 59.6970055 177.724351 59.6970055 41.7243507 219.697006 41.7243507"></polygon>
        <path d="M59.6970055,117.724351 L109.697006,117.724351 C109.697006,131.531469 123.128463,142.724351 139.697006,142.724351 C156.265548,142.724351 170.697006,131.531469 170.697006,117.724351 L219.697006,117.724351" id="Path" stroke="#16171C"></path>
    </g>
</svg>