<?xml version="1.0" encoding="UTF-8"?>
<svg width="512px" height="512px" viewBox="0 0 512 512" version="1.1" xmlns="http://www.w3.org/2000/svg" xmlns:xlink="http://www.w3.org/1999/xlink">
    <!-- Generator: Sketch 53.2 (72643) - https://sketchapp.com -->
    <title>error</title>
    <desc>Created with Sketch.</desc>
    <g id="error" stroke="none" stroke-width="1" fill="none" fill-rule="evenodd">
        <circle id="Oval" stroke="#16171C" cx="253.865433" cy="276" r="175"></circle>
        <path d="M425.980935,335.892024 L425.778266,334.912777 C480.229379,323.64331 512,307.490587 512,290.412092 C512,257.739687 397.535593,230.912092 256.5,230.912092 C115.464407,230.912092 1,257.739687 1,290.412092 C1,307.535903 32.9395743,323.727364 87.639293,334.999008 L87.4374694,335.97843 C32.2446585,324.605177 0,308.259057 0,290.412092 C0,256.810326 114.765801,229.912092 256.5,229.912092 C398.234199,229.912092 513,256.810326 513,290.412092 C513,308.212817 480.924197,324.5207 425.980935,335.892024 Z" id="Path" fill="#16171C" fill-rule="nonzero" transform="translate(256.500000, 282.945261) rotate(160.000000) translate(-256.500000, -282.945261) "></path>
        <circle id="Oval" stroke="#16171C" cx="194.865433" cy="174" r="20"></circle>
        <circle id="Oval" stroke="#16171C" cx="344.865433" cy="230" r="10"></circle>
        <path d="M346.467282,424.89977 C346.729211,423.30534 346.865433,421.668578 346.865433,420 C346.865433,403.431458 333.433976,390 316.865433,390 C300.296891,390 286.865433,403.431458 286.865433,420 C286.865433,430.40966 292.167286,439.581006 300.217956,444.961004" id="Path" stroke="#16171C"></path>
        <circle id="Oval" stroke="#16171C" cx="127.865433" cy="321" r="5"></circle>
        <path d="M165.412937,111 L195.412937,111 L165.412937,111 Z M142.548609,121 L172.54861,121 L142.548609,121 Z M125.854586,131 L155.854586,131 L125.854586,131 L125.854586,131 Z M112.502539,141 L142.502539,141 L112.502539,141 L112.502539,141 Z M101.390865,151 L131.390865,151 L101.390865,151 L101.390865,151 Z M91.9530393,161 L121.953039,161 L91.9530393,161 Z M83.8526169,171 L113.852617,171 L83.8526169,171 Z M76.8712347,181 L106.871235,181 L76.8712347,181 L76.8712347,181 Z M70.8584557,191 L100.858456,191 L70.8584557,191 L70.8584557,191 Z M65.7062126,201 L95.7062126,201 L65.7062126,201 L65.7062126,201 Z M61.3345182,211 L61.3345348,210.999998 L61.3345182,211 L91.3345339,211 L61.3345182,211 Z M57.6830014,221 L87.6830028,221 L57.6830014,221 L57.6830014,221 Z M54.7053877,231 L84.7053877,231 L54.7053877,231 L54.7053877,231 Z M52.3660675,241 L82.3660675,241 L52.3660675,241 L52.3660675,241 Z M50.6376549,251 L80.6376549,251 L50.6376549,251 L50.6376549,251 Z M49.4992984,261 L79.4992984,261 L49.4992984,261 L49.4992984,261 Z M48.9354881,271 L48.9354886,270.999981 L48.9354881,271 L78.9354885,270.999983 L78.9354881,271 L48.9354881,271 Z M48.9354886,281.000019 L48.9354881,281 L78.9354885,281.000017 L78.9354881,281 L48.9354886,281.000019 Z M49.4992984,291 L79.4992984,291 L49.4992984,291 Z M50.6376549,301 L80.6376549,301 L50.6376549,301 L50.6376549,301 Z M52.3660675,311 L82.3660675,311 L52.3660675,311 L52.3660675,311 Z M54.7053877,321 L84.7053877,321 L54.7053877,321 Z M57.6830014,331 L87.6830028,331 L57.6830014,331 L57.6830014,331 Z M61.3345182,341 L91.3345339,341 L61.3345182,341 L61.3345348,341.000002 L61.3345182,341 Z M65.7062172,351.00001 L95.7062126,351 L65.7062126,351 L65.7062172,351.00001 Z M70.8584557,361 L100.858456,361 L70.8584557,361 L70.8584557,361 Z M76.8712347,371 L106.871235,371 L76.8712347,371 Z M83.8526169,381 L113.852617,381 L83.8526169,381 L83.8526169,381 Z M91.9530393,391 L121.953039,391 L91.9530393,391 L91.9530393,391 Z M101.390865,401 L131.390865,401 L101.390865,401 L101.390865,401 Z M112.502539,411 L142.502539,411 L112.502539,411 L112.502539,411 Z M125.854586,421 L155.854586,421 L125.854586,421 L125.854586,421 Z M142.548609,431 L172.54861,431 L142.548609,431 L142.548609,431 Z M165.412937,441 L195.412937,441 L165.412937,441 L165.412937,441 Z" id="Shadow" stroke="#4E75F6"></path>
        <path d="M399.865175,75.8926751 L398.865433,75.8699261 C399.064696,67.1130113 405.278325,62 414.042198,62 C422.538028,62 429.219091,67.6888436 429.219091,75.8813006 C429.219091,80.0095184 426.366127,83.8937238 421.030844,88.4243135 C420.289606,89.0537546 419.524861,89.6773843 418.564623,90.4418234 C418.387233,90.5830422 416.75852,91.8716512 416.325998,92.2190412 C414.725562,93.5044656 413.863011,94.2904551 413.436531,94.8945857 C411.949855,97.0005381 410.910615,99.6110139 410.322057,102.730336 L409.339396,102.544926 C409.953299,99.291276 411.045613,96.5474834 412.619586,94.3178711 C413.120258,93.6086433 414.022028,92.7869158 415.699796,91.4393801 C416.135733,91.0892477 417.766941,89.7986642 417.941793,89.6594658 C418.894469,88.901047 419.651616,88.2836132 420.383561,87.662064 C425.508005,83.3105138 428.219091,79.6194692 428.219091,75.8813006 C428.219091,68.2799806 422.018203,63 414.042198,63 C405.787696,63 400.051132,67.7204474 399.865175,75.8926751 Z M409.770842,111.491375 C408.666273,111.491375 407.770842,110.595945 407.770842,109.491375 C407.770842,108.386806 408.666273,107.491375 409.770842,107.491375 C410.875412,107.491375 411.770842,108.386806 411.770842,109.491375 C411.770842,110.595945 410.875412,111.491375 409.770842,111.491375 Z" id="Question-Mark" fill="#16171C" fill-rule="nonzero"></path>
    </g>
</svg>