<?xml version="1.0" encoding="UTF-8"?>
<svg width="170px" height="215px" viewBox="0 0 170 215" version="1.1" xmlns="http://www.w3.org/2000/svg" xmlns:xlink="http://www.w3.org/1999/xlink">
    <!-- Generator: Sketch 53.2 (72643) - https://sketchapp.com -->
    <title>gitcoin</title>
    <desc>Created with Sketch.</desc>
    <g id="Page-1" stroke="none" stroke-width="1" fill="none" fill-rule="evenodd">
        <g id="gitcoin" fill="#0E0333">
            <path d="M140.933,84.436 C147.889,94.186 151.665,106.026 151.566,117.965 C151.566,129.705 147.79,141.445 140.933,150.996 L155.441,162.039 C164.682,149.304 169.75,133.784 169.75,118.064 C169.85,101.449 164.384,85.133 154.348,72 L146.028,79.5 L140.933,84.436 Z" id="Path"></path>
            <path d="M168.359,171.821 L119.569,134.711 C123.047,130.134 125.034,124.563 125.332,118.792 C125.531,113.022 124.041,107.351 120.96,102.476 L144.312,81.384 L168.757,58.501 C170.347,57.0083 170.446,54.4216 168.856,52.8297 L165.478,49.447 C148.088,31.8371 124.637,21.5895 99.993,20.7936 L100.093,7.3623 C100.192,6.4669 100.093,5.5715 99.894,4.6761 C99.596,3.7807 99.198,2.9847 98.602,2.2883 C98.006,1.5919 97.31,1.0944 96.416,0.6964 C95.621,0.2985 94.727,0.0995 93.832,0.0995 C92.938,0.0995 92.044,0.2985 91.249,0.6964 C90.454,1.0944 89.659,1.5919 89.063,2.2883 C88.466,2.9847 87.969,3.7807 87.771,4.5766 C87.473,5.472 87.373,6.3674 87.572,7.2628 L87.473,21.0921 C81.61,21.689 75.747,22.7834 70.083,24.4748 L70.182,7.2628 C70.282,6.3674 70.182,5.472 69.984,4.5766 C69.686,3.6812 69.288,2.8852 68.692,2.1888 C68.096,1.4924 67.4,0.9949 66.506,0.5969 C65.711,0.199 64.816,0 63.922,0 C63.028,0 62.133,0.199 61.339,0.5969 C60.544,0.9949 59.749,1.4924 59.152,2.1888 C58.556,2.8852 58.059,3.6812 57.861,4.4771 C57.562,5.3725 57.463,6.2679 57.662,7.1634 L57.364,29.1509 C37.2912,38.105 20.7959,53.7251 10.7596,73.325 C0.7233,92.925 -2.4566,115.41 1.9157,136.999 C6.2879,158.589 17.9142,178.089 34.8069,192.217 C51.7,206.344 72.965,214.304 94.925,214.702 L165.974,215 C168.161,215 169.949,213.209 169.949,211.02 L169.949,175.104 C169.949,173.811 169.353,172.617 168.359,171.821 Z M96.317,197.39 C78.828,197.291 61.835,191.421 48.023,180.775 C34.2107,170.03 24.2738,155.007 19.8022,138.093 C15.3306,121.18 16.6224,103.172 23.2801,87.055 C30.0372,70.937 41.8621,57.4063 57.066,48.6511 L56.966,74.817 C56.867,75.713 56.966,76.608 57.165,77.503 C57.463,78.399 57.861,79.195 58.457,79.891 C59.053,80.588 59.749,81.085 60.643,81.483 C61.438,81.881 62.332,82.08 63.227,82.08 C64.121,82.08 65.015,81.881 65.81,81.483 C66.605,81.085 67.4,80.588 67.996,79.891 C68.592,79.195 69.089,78.399 69.288,77.603 C69.586,76.708 69.686,75.812 69.487,74.917 L69.586,42.7811 C78.331,39.5974 87.572,38.105 96.913,38.105 C114.104,38.105 130.798,43.776 144.411,54.1231 C145.405,54.919 145.504,56.3119 144.61,57.2073 L107.446,91.333 C104.067,89.94 100.391,89.144 96.714,89.144 C92.64,89.144 88.566,89.94 84.79,91.631 C81.014,93.323 77.734,95.81 75.051,98.894 C72.369,101.978 70.381,105.659 69.189,109.54 C67.996,113.519 67.698,117.598 68.294,121.677 C68.891,125.757 70.282,129.637 72.468,133.119 C74.654,136.601 77.635,139.486 81.014,141.775 C84.492,143.963 88.367,145.456 92.441,146.053 C96.515,146.65 100.689,146.351 104.564,145.157 L152.063,181.273 C152.56,181.671 152.858,182.267 152.858,182.864 L152.758,195.599 C152.758,196.694 151.864,197.589 150.771,197.589 L96.317,197.39 Z M107.943,117.797 C107.943,119.986 107.247,122.175 106.055,124.065 C104.763,125.956 103.074,127.348 100.987,128.244 C98.9,129.139 96.615,129.338 94.528,128.841 C92.441,128.343 90.354,127.348 88.764,125.757 C87.175,124.165 86.081,122.175 85.684,119.986 C85.287,117.797 85.485,115.509 86.38,113.519 C87.274,111.43 88.665,109.739 90.553,108.445 C92.441,107.251 94.627,106.555 96.813,106.555 C99.794,106.555 102.676,107.749 104.763,109.938 C106.75,111.927 107.943,114.713 107.943,117.797 Z" id="Shape"></path>
        </g>
    </g>
</svg>