<?xml version="1.0" encoding="UTF-8" standalone="no"?><!DOCTYPE svg PUBLIC "-//W3C//DTD SVG 1.1//EN" "http://www.w3.org/Graphics/SVG/1.1/DTD/svg11.dtd"><svg width="100%" height="100%" viewBox="0 0 142 131" version="1.1" xmlns="http://www.w3.org/2000/svg" xmlns:xlink="http://www.w3.org/1999/xlink" xml:space="preserve" xmlns:serif="http://www.serif.com/" style="fill-rule:evenodd;clip-rule:evenodd;stroke-linecap:round;stroke-linejoin:round;"><g><path d="M133.68,0.521l-54.725,40.493l10.177,-23.864l44.548,-16.629Z" style="fill:#e17726;fill-rule:nonzero;stroke:#e17726;stroke-width:1.04px;"/><path d="M7.449,0.521l54.239,40.871l-9.69,-24.242l-44.549,-16.629Z" style="fill:#e27625;fill-rule:nonzero;stroke:#e27625;stroke-width:1.04px;"/><path d="M113.976,94.41l-14.561,22.244l31.179,8.585l8.931,-30.343l-25.549,-0.486Z" style="fill:#e27625;fill-rule:nonzero;stroke:#e27625;stroke-width:1.04px;"/><path d="M1.657,94.896l8.877,30.343l31.125,-8.585l-14.507,-22.244l-25.495,0.486Z" style="fill:#e27625;fill-rule:nonzero;stroke:#e27625;stroke-width:1.04px;"/><path d="M39.981,56.833l-8.661,13.066l30.854,1.404l-1.028,-33.205l-21.165,18.735Z" style="fill:#e27625;fill-rule:nonzero;stroke:#e27625;stroke-width:1.04px;"/><path d="M101.147,56.833l-21.489,-19.112l-0.704,33.582l30.854,-1.404l-8.661,-13.066Z" style="fill:#e27625;fill-rule:nonzero;stroke:#e27625;stroke-width:1.04px;"/><path d="M41.66,116.654l18.674,-9.016l-16.076,-12.526l-2.598,21.542Z" style="fill:#e27625;fill-rule:nonzero;stroke:#e27625;stroke-width:1.04px;"/><path d="M80.795,107.638l18.621,9.016l-2.544,-21.542l-16.077,12.526Z" style="fill:#e27625;fill-rule:nonzero;stroke:#e27625;stroke-width:1.04px;"/><path d="M99.416,116.655l-18.621,-9.016l1.516,12.094l-0.163,5.129l17.268,-8.207Z" style="fill:#d5bfb2;fill-rule:nonzero;stroke:#d5bfb2;stroke-width:1.04px;"/><path d="M41.66,116.655l17.321,8.207l-0.108,-5.129l1.461,-12.094l-18.674,9.016Z" style="fill:#d5bfb2;fill-rule:nonzero;stroke:#d5bfb2;stroke-width:1.04px;"/><path d="M59.305,87.122l-15.481,-4.535l10.934,-5.022l4.547,9.557Z" style="fill:#233447;fill-rule:nonzero;stroke:#233447;stroke-width:1.04px;"/><path d="M81.824,87.122l4.547,-9.557l10.988,5.022l-15.535,4.535Z" style="fill:#233447;fill-rule:nonzero;stroke:#233447;stroke-width:1.04px;"/><path d="M41.659,116.654l2.707,-22.244l-17.213,0.486l14.506,21.758Z" style="fill:#cc6228;fill-rule:nonzero;stroke:#cc6228;stroke-width:1.04px;"/><path d="M96.763,94.41l2.652,22.244l14.561,-21.758l-17.213,-0.486Z" style="fill:#cc6228;fill-rule:nonzero;stroke:#cc6228;stroke-width:1.04px;"/><path d="M109.808,69.898l-30.854,1.404l2.869,15.82l4.547,-9.557l10.988,5.021l12.45,-12.688Z" style="fill:#cc6228;fill-rule:nonzero;stroke:#cc6228;stroke-width:1.04px;"/><path d="M43.824,82.586l10.934,-5.021l4.547,9.557l2.869,-15.82l-30.854,-1.404l12.504,12.688Z" style="fill:#cc6228;fill-rule:nonzero;stroke:#cc6228;stroke-width:1.04px;"/><path d="M31.321,69.898l12.937,25.214l-0.433,-12.526l-12.504,-12.688Z" style="fill:#e27525;fill-rule:nonzero;stroke:#e27525;stroke-width:1.04px;"/><path d="M97.359,82.586l-0.487,12.526l12.937,-25.214l-12.45,12.688Z" style="fill:#e27525;fill-rule:nonzero;stroke:#e27525;stroke-width:1.04px;"/><path d="M62.176,71.302l-2.869,15.82l3.626,18.68l0.812,-24.62l-1.569,-9.88Z" style="fill:#e27525;fill-rule:nonzero;stroke:#e27525;stroke-width:1.04px;"/><path d="M78.955,71.302l-1.516,9.827l0.758,24.673l3.627,-18.68l-2.869,-15.82Z" style="fill:#e27525;fill-rule:nonzero;stroke:#e27525;stroke-width:1.04px;"/><path d="M81.824,87.122l-3.627,18.681l2.598,1.835l16.077,-12.525l0.487,-12.526l-15.535,4.535Z" style="fill:#f5841f;fill-rule:nonzero;stroke:#f5841f;stroke-width:1.04px;"/><path d="M43.824,82.587l0.434,12.526l16.076,12.525l2.598,-1.835l-3.627,-18.681l-15.481,-4.535Z" style="fill:#f5841f;fill-rule:nonzero;stroke:#f5841f;stroke-width:1.04px;"/><path d="M82.149,124.861l0.162,-5.129l-1.407,-1.188l-20.678,0l-1.353,1.188l0.108,5.129l-17.321,-8.206l6.062,4.967l12.288,8.476l21.056,0l12.342,-8.476l6.008,-4.967l-17.267,8.206Z" style="fill:#c0ac9d;fill-rule:nonzero;stroke:#c0ac9d;stroke-width:1.04px;"/><path d="M80.795,107.638l-2.598,-1.835l-15.265,-0l-2.598,1.835l-1.462,12.094l1.354,-1.188l20.677,0l1.408,1.188l-1.516,-12.094Z" style="fill:#161616;fill-rule:nonzero;stroke:#161616;stroke-width:1.04px;"/><path d="M136.008,43.659l4.601,-22.352l-6.929,-20.786l-52.885,39.143l20.353,17.169l28.743,8.369l6.333,-7.397l-2.76,-1.998l4.384,-3.995l-3.356,-2.592l4.385,-3.347l-2.869,-2.214Z" style="fill:#763e1a;fill-rule:nonzero;stroke:#763e1a;stroke-width:1.04px;"/><path d="M0.521,21.307l4.655,22.352l-2.977,2.214l4.438,3.347l-3.356,2.592l4.385,3.995l-2.761,1.998l6.334,7.397l28.743,-8.369l20.352,-17.169l-52.885,-39.143l-6.928,20.786Z" style="fill:#763e1a;fill-rule:nonzero;stroke:#763e1a;stroke-width:1.04px;"/><path d="M129.891,65.201l-28.743,-8.368l8.661,13.066l-12.937,25.213l17.105,-0.216l25.549,0l-9.635,-29.695Z" style="fill:#f5841f;fill-rule:nonzero;stroke:#f5841f;stroke-width:1.04px;"/><path d="M39.981,56.833l-28.743,8.368l-9.581,29.695l25.495,0l17.105,0.216l-12.937,-25.213l8.661,-13.066Z" style="fill:#f5841f;fill-rule:nonzero;stroke:#f5841f;stroke-width:1.04px;"/><path d="M78.955,71.303l1.84,-31.639l8.336,-22.514l-37.133,-0l8.336,22.514l1.84,31.639l0.704,9.934l0.054,24.566l15.265,-0l0.054,-24.566l0.704,-9.934Z" style="fill:#f5841f;fill-rule:nonzero;stroke:#f5841f;stroke-width:1.04px;"/></g></svg>