<?xml version="1.0" encoding="UTF-8"?>
<svg width="100px" height="100px" viewBox="0 0 100 100" version="1.1" xmlns="http://www.w3.org/2000/svg" xmlns:xlink="http://www.w3.org/1999/xlink">
    <!-- Generator: Sketch 53.2 (72643) - https://sketchapp.com -->
    <title>unknown-chain</title>
    <desc>Created with Sketch.</desc>
    <g id="unknown-chain" stroke="none" stroke-width="1" fill="none" fill-rule="evenodd">
        <circle id="Oval" fill="#E6E8ED" cx="50" cy="50" r="50"></circle>
        <g id="route-line" transform="translate(18.000000, 18.000000)">
            <polygon id="Path" points="0 0 64 0 64 64 0 64"></polygon>
            <path d="M10.6666667,40 L10.6666667,22.6666667 C10.6666667,16.0392497 16.0392497,10.6666667 22.6666667,10.6666667 C29.2940837,10.6666667 34.6666667,16.0392497 34.6666667,22.6666667 L34.6666667,41.3333333 C34.6666667,45.0152317 37.651435,48 41.3333333,48 C45.0152317,48 48,45.0152317 48,41.3333333 L48,23.5466667 C44.3249967,22.2478439 42.1202764,18.4902364 42.7791702,14.6485638 C43.4380641,10.8068912 46.7688994,7.9986993 50.6666667,7.9986993 C54.5644339,7.9986993 57.8952692,10.8068912 58.5541631,14.6485638 C59.213057,18.4902364 57.0083366,22.2478439 53.3333333,23.5466667 L53.3333333,41.3333333 C53.3333334,45.6205205 51.0461464,49.5820448 47.3333334,51.7256384 C43.6205204,53.869232 39.0461462,53.869232 35.3333333,51.7256384 C31.6205203,49.5820448 29.3333332,45.6205205 29.3333333,41.3333333 L29.3333333,22.6666667 C29.3333333,18.9847683 26.348565,16 22.6666667,16 C18.9847683,16 16,18.9847683 16,22.6666667 L16,40 L24,40 L13.3333333,53.3333333 L2.66666667,40 L10.6666667,40 Z M50.6666667,18.6666667 C52.139426,18.6666667 53.3333333,17.4727593 53.3333333,16 C53.3333333,14.5272407 52.139426,13.3333333 50.6666667,13.3333333 C49.1939073,13.3333333 48,14.5272407 48,16 C48,17.4727593 49.1939073,18.6666667 50.6666667,18.6666667 Z" id="Shape" fill="#4C505D" fill-rule="nonzero"></path>
        </g>
    </g>
</svg>